<svg width="23" height="22" viewBox="0 0 23 22" fill="none" xmlns="http://www.w3.org/2000/svg">
<path d="M11.6815 0.0078125C17.9247 0.0078125 22.651 5.12655 22.651 10.9828C22.651 17.7748 17.1113 21.9908 11.6595 21.9908C9.85688 21.9908 7.85642 21.5065 6.25166 20.5598C5.69109 20.2186 5.21846 19.9654 4.61392 20.1635L2.39364 20.824C1.83307 21.0001 1.32746 20.5598 1.49233 19.9654L2.22876 17.4996C2.34967 17.1583 2.32769 16.7951 2.15182 16.5088C1.20655 14.7696 0.667969 12.8652 0.667969 11.0158C0.667969 5.22562 5.2954 0.0078125 11.6815 0.0078125ZM16.7046 9.61782C15.9242 9.61782 15.2977 10.2453 15.2977 11.0268C15.2977 11.7974 15.9242 12.4359 16.7046 12.4359C17.485 12.4359 18.1115 11.7974 18.1115 11.0268C18.1115 10.2453 17.485 9.61782 16.7046 9.61782ZM11.6375 9.61782C10.8681 9.60681 10.2306 10.2453 10.2306 11.0158C10.2306 11.7974 10.8571 12.4249 11.6375 12.4359C12.4179 12.4359 13.0444 11.7974 13.0444 11.0268C13.0444 10.2453 12.4179 9.61782 11.6375 9.61782ZM6.57041 9.61782C5.79002 9.61782 5.1635 10.2453 5.1635 11.0268C5.1635 11.7974 5.80101 12.4359 6.57041 12.4359C7.35081 12.4249 7.97733 11.7974 7.97733 11.0268C7.97733 10.2453 7.35081 9.61782 6.57041 9.61782Z" fill="#FFAC97"/>
<path d="M11.6815 0.0078125C17.9247 0.0078125 22.651 5.12655 22.651 10.9828C22.651 17.7748 17.1113 21.9908 11.6595 21.9908C9.85688 21.9908 7.85642 21.5065 6.25166 20.5598C5.69109 20.2186 5.21846 19.9654 4.61392 20.1635L2.39364 20.824C1.83307 21.0001 1.32746 20.5598 1.49233 19.9654L2.22876 17.4996C2.34967 17.1583 2.32769 16.7951 2.15182 16.5088C1.20655 14.7696 0.667969 12.8652 0.667969 11.0158C0.667969 5.22562 5.2954 0.0078125 11.6815 0.0078125ZM16.7046 9.61782C15.9242 9.61782 15.2977 10.2453 15.2977 11.0268C15.2977 11.7974 15.9242 12.4359 16.7046 12.4359C17.485 12.4359 18.1115 11.7974 18.1115 11.0268C18.1115 10.2453 17.485 9.61782 16.7046 9.61782ZM11.6375 9.61782C10.8681 9.60681 10.2306 10.2453 10.2306 11.0158C10.2306 11.7974 10.8571 12.4249 11.6375 12.4359C12.4179 12.4359 13.0444 11.7974 13.0444 11.0268C13.0444 10.2453 12.4179 9.61782 11.6375 9.61782ZM6.57041 9.61782C5.79002 9.61782 5.1635 10.2453 5.1635 11.0268C5.1635 11.7974 5.80101 12.4359 6.57041 12.4359C7.35081 12.4249 7.97733 11.7974 7.97733 11.0268C7.97733 10.2453 7.35081 9.61782 6.57041 9.61782Z" fill="url(#paint0_linear_269_151)"/>
<defs>
<linearGradient id="paint0_linear_269_151" x1="11.6595" y1="0.0078125" x2="11.6595" y2="21.9908" gradientUnits="userSpaceOnUse">
<stop stop-color="#CE8777"/>
<stop offset="1" stop-color="#CE8777" stop-opacity="0"/>
</linearGradient>
</defs>
</svg>
